<?xml version="1.0" encoding="utf-8"?>
<!-- Generator: Adobe Illustrator 17.1.0, SVG Export Plug-In . SVG Version: 6.00 Build 0)  -->
<!DOCTYPE svg PUBLIC "-//W3C//DTD SVG 1.1//EN" "http://www.w3.org/Graphics/SVG/1.1/DTD/svg11.dtd">
<svg version="1.1" id="Layer_1" xmlns="http://www.w3.org/2000/svg" xmlns:xlink="http://www.w3.org/1999/xlink" x="0px" y="0px"
	 viewBox="0 0 332 80" enable-background="new 0 0 332 80" xml:space="preserve">
<g>
	<path fill="#121314" d="M332,76c0,2.2-1.8,4-4,4H4c-2.2,0-4-1.8-4-4V4c0-2.2,1.8-4,4-4h324c2.2,0,4,1.8,4,4V76z"/>
	<g>
		<g>
			<g>
				<g>
					<path fill="#84BD00" d="M59.5,19.7c-11,0-20,9-20,20c0,11,9,20,20,20c11,0,20-9,20-20C79.5,28.7,70.6,19.7,59.5,19.7z
						 M68.7,48.6c-0.4,0.6-1.1,0.8-1.7,0.4c-4.7-2.9-10.6-3.5-17.6-1.9c-0.7,0.2-1.3-0.3-1.5-0.9c-0.2-0.7,0.3-1.3,0.9-1.5
						c7.6-1.7,14.2-1,19.4,2.2C68.9,47.2,69,48,68.7,48.6z M71.1,43.1c-0.5,0.7-1.4,1-2.1,0.5c-5.4-3.3-13.6-4.3-19.9-2.3
						c-0.8,0.2-1.7-0.2-1.9-1c-0.2-0.8,0.2-1.7,1-1.9c7.3-2.2,16.3-1.1,22.5,2.7C71.3,41.4,71.6,42.4,71.1,43.1z M71.3,37.5
						c-6.4-3.8-17.1-4.2-23.2-2.3c-1,0.3-2-0.3-2.3-1.2c-0.3-1,0.3-2,1.2-2.3c7.1-2.1,18.8-1.7,26.2,2.7c0.9,0.5,1.2,1.7,0.7,2.6
						C73.4,37.7,72.2,38,71.3,37.5z"/>
				</g>
			</g>
		</g>
		<g>
			<path fill="#FFFFFF" d="M115.7,49.7l-1.5-3.9H105l-1.5,3.9h-4l7.9-20h4.4l7.9,20H115.7z M109.6,33.2l-3.6,9.5h7.2L109.6,33.2z"/>
			<path fill="#FFFFFF" d="M131.9,49.7v-2c-1.1,1.4-2.8,2.3-4.6,2.3c-3.7,0-6.4-2.8-6.4-7.6c0-4.7,2.7-7.6,6.4-7.6
				c1.8,0,3.5,0.8,4.6,2.4v-7.5h3.2v20H131.9z M131.9,45.3v-5.7c-0.7-1.1-2.2-2-3.7-2c-2.5,0-4.1,2-4.1,4.8c0,2.8,1.6,4.8,4.1,4.8
				C129.7,47.3,131.2,46.4,131.9,45.3z"/>
			<path fill="#FFFFFF" d="M149.4,49.7v-2c-1.1,1.4-2.8,2.3-4.6,2.3c-3.7,0-6.4-2.8-6.4-7.6c0-4.7,2.7-7.6,6.4-7.6
				c1.8,0,3.5,0.8,4.6,2.4v-7.5h3.1v20H149.4z M149.4,45.3v-5.7c-0.7-1.1-2.2-2-3.7-2c-2.5,0-4.1,2-4.1,4.8c0,2.8,1.6,4.8,4.1,4.8
				C147.1,47.3,148.7,46.4,149.4,45.3z"/>
			<path fill="#FFFFFF" d="M165,46.3V38h-2.4v-2.7h2.4v-4h3.1v4h2.9V38h-2.9v7.6c0,1,0.5,1.7,1.4,1.7c0.6,0,1.1-0.3,1.4-0.5l0.7,2.4
				c-0.6,0.5-1.5,0.9-2.9,0.9C166.3,50.1,165,48.8,165,46.3z"/>
			<path fill="#FFFFFF" d="M173,42.5c0-4.2,2.8-7.6,7.4-7.6s7.4,3.4,7.4,7.6c0,4.1-2.8,7.6-7.4,7.6S173,46.6,173,42.5z M184.6,42.5
				c0-2.5-1.5-4.8-4.2-4.8c-2.7,0-4.2,2.2-4.2,4.8c0,2.6,1.5,4.8,4.2,4.8C183.2,47.3,184.6,45,184.6,42.5z"/>
			<path fill="#FFFFFF" d="M199,49.7v-20h8.8c4.2,0,6.5,2.8,6.5,6.3c0,3.4-2.3,6.2-6.5,6.2h-5.3v7.5H199z M210.7,36
				c0-1.9-1.4-3.2-3.4-3.2h-4.8v6.3h4.8C209.3,39.1,210.7,37.9,210.7,36z"/>
			<path fill="#FFFFFF" d="M217.1,49.7v-20h3.2v20H217.1z"/>
			<path fill="#FFFFFF" d="M233.2,49.7v-1.6c-1.1,1.3-2.8,2-4.7,2c-2.3,0-5-1.6-5-4.8c0-3.4,2.6-4.7,5-4.7c2,0,3.6,0.6,4.7,1.9v-2.2
				c0-1.7-1.4-2.7-3.4-2.7c-1.6,0-3.1,0.6-4.3,1.9l-1.3-2.2c1.7-1.6,3.8-2.3,6.1-2.3c3.2,0,6.1,1.4,6.1,5.2v9.6H233.2z M233.2,46.4
				v-2.2c-0.8-1-2.1-1.5-3.4-1.5c-1.8,0-3.1,1-3.1,2.6c0,1.6,1.3,2.6,3.1,2.6C231.1,47.9,232.5,47.4,233.2,46.4z"/>
			<path fill="#FFFFFF" d="M240.3,52.6c0.3,0.2,0.8,0.2,1.2,0.2c1,0,1.7-0.3,2.1-1.3l0.7-1.7l-6-14.7h3.4l4.2,10.9l4.2-10.9h3.4
				l-7,17.1c-1,2.5-2.7,3.2-5,3.3c-0.5,0-1.3-0.1-1.8-0.2L240.3,52.6z"/>
			<path fill="#FFFFFF" d="M255.6,49.7v-20h3.2v20H255.6z"/>
			<path fill="#FFFFFF" d="M262.4,31.5c0-1.1,0.9-2,2-2s2,0.9,2,2s-0.9,1.9-2,1.9S262.4,32.6,262.4,31.5z M262.8,49.7V35.2h3.2v14.5
				H262.8z"/>
			<path fill="#FFFFFF" d="M268.8,47.8l1.4-2.2c1,1,3,2,4.9,2c1.9,0,2.9-0.8,2.9-1.9c0-2.8-8.8-0.8-8.8-6.4c0-2.4,2-4.4,5.7-4.4
				c2.5,0,4.3,0.9,5.6,2l-1.3,2.2c-0.9-1-2.5-1.7-4.3-1.7c-1.6,0-2.7,0.8-2.7,1.8c0,2.5,8.8,0.6,8.8,6.4c0,2.6-2.1,4.5-6,4.5
				C272.5,50.1,270.3,49.3,268.8,47.8z"/>
			<path fill="#FFFFFF" d="M284.8,46.3V38h-2.4v-2.7h2.4v-4h3.1v4h2.9V38H288v7.6c0,1,0.5,1.7,1.4,1.7c0.6,0,1.1-0.3,1.4-0.5
				l0.7,2.4c-0.6,0.5-1.5,0.9-2.9,0.9C286.1,50.1,284.8,48.8,284.8,46.3z"/>
		</g>
	</g>
</g>
</svg>
