<?xml version="1.0" encoding="utf-8"?>
<!-- Generator: Adobe Illustrator 17.1.0, SVG Export Plug-In . SVG Version: 6.00 Build 0)  -->
<!DOCTYPE svg PUBLIC "-//W3C//DTD SVG 1.1//EN" "http://www.w3.org/Graphics/SVG/1.1/DTD/svg11.dtd">
<svg version="1.1" id="Layer_1" xmlns="http://www.w3.org/2000/svg" xmlns:xlink="http://www.w3.org/1999/xlink" x="0px" y="0px"
	 viewBox="0 0 332 80" enable-background="new 0 0 332 80" xml:space="preserve">
<path fill="#121314" d="M332,76c0,2.2-1.8,4-4,4H4c-2.2,0-4-1.8-4-4V4c0-2.2,1.8-4,4-4h324c2.2,0,4,1.8,4,4V76z"/>
<g>
	<g>
		<g>
			<g>
				<path fill="#84BD00" d="M59.8,20c-11,0-20,9-20,20c0,11,9,20,20,20c11,0,20-9,20-20C79.8,29,70.9,20,59.8,20z M69,48.8
					c-0.4,0.6-1.1,0.8-1.7,0.4c-4.7-2.9-10.6-3.5-17.6-1.9c-0.7,0.2-1.3-0.3-1.5-0.9c-0.2-0.7,0.3-1.3,0.9-1.5
					c7.6-1.7,14.2-1,19.4,2.2C69.2,47.5,69.3,48.3,69,48.8z M71.4,43.4c-0.5,0.7-1.4,1-2.1,0.5c-5.4-3.3-13.6-4.3-19.9-2.3
					c-0.8,0.2-1.7-0.2-1.9-1c-0.2-0.8,0.2-1.7,1-1.9c7.3-2.2,16.3-1.1,22.5,2.7C71.6,41.7,71.9,42.7,71.4,43.4z M71.6,37.7
					c-6.4-3.8-17.1-4.2-23.2-2.3c-1,0.3-2-0.3-2.3-1.2c-0.3-1,0.3-2,1.2-2.3c7.1-2.1,18.8-1.7,26.2,2.7c0.9,0.5,1.2,1.7,0.7,2.6
					C73.7,38,72.5,38.3,71.6,37.7z"/>
			</g>
		</g>
	</g>
	<g>
		<path fill="#FFFFFF" d="M101.1,40c0-6.2,4.6-10.3,10.5-10.3c4,0,6.5,2.1,8,4.5l-3,1.6c-1-1.7-2.9-2.9-5-2.9c-4,0-6.9,3-6.9,7.2
			c0,4.2,2.9,7.2,6.9,7.2c2.1,0,4.1-1.3,5-2.9l3,1.5c-1.5,2.4-4,4.5-8,4.5C105.7,50.4,101.1,46.2,101.1,40z"/>
		<path fill="#FFFFFF" d="M122.3,50V35.5h3.1v2.1c1.1-1.4,2.8-2.5,4.7-2.5v3.1c-0.3-0.1-0.6-0.1-1-0.1c-1.3,0-3.1,0.9-3.7,2V50
			H122.3z"/>
		<path fill="#FFFFFF" d="M131.8,42.7c0-4.2,3.1-7.6,7.3-7.6c4.4,0,7.1,3.3,7.1,7.9v0.8h-11.2c0.2,2.2,1.9,4,4.6,4
			c1.4,0,3.1-0.6,4.1-1.6l1.4,2.1c-1.5,1.4-3.6,2.1-5.9,2.1C135.1,50.4,131.8,47.3,131.8,42.7z M139.2,37.7c-2.7,0-3.9,2.1-4,3.8
			h8.2C143.2,39.8,142,37.7,139.2,37.7z"/>
		<path fill="#FFFFFF" d="M158.3,50v-1.6c-1.1,1.3-2.8,2-4.7,2c-2.3,0-5-1.6-5-4.8c0-3.4,2.6-4.7,5-4.7c2,0,3.6,0.6,4.7,1.9v-2.2
			c0-1.7-1.4-2.7-3.4-2.7c-1.6,0-3.1,0.6-4.3,1.9l-1.3-2.2c1.7-1.6,3.8-2.3,6.1-2.3c3.2,0,6.1,1.4,6.1,5.2V50H158.3z M158.3,46.7
			v-2.2c-0.8-1-2.1-1.5-3.5-1.5c-1.8,0-3.1,1-3.1,2.6c0,1.6,1.3,2.6,3.1,2.6C156.2,48.2,157.6,47.7,158.3,46.7z"/>
		<path fill="#FFFFFF" d="M166.2,46.6v-8.4h-2.4v-2.7h2.4v-4h3.2v4h2.9v2.7h-2.9v7.6c0,1,0.5,1.7,1.4,1.7c0.6,0,1.1-0.3,1.4-0.5
			l0.8,2.4c-0.6,0.5-1.5,0.9-2.9,0.9C167.5,50.4,166.2,49,166.2,46.6z"/>
		<path fill="#FFFFFF" d="M174.2,42.7c0-4.2,3.1-7.6,7.3-7.6c4.3,0,7.1,3.3,7.1,7.9v0.8h-11.2c0.2,2.2,1.9,4,4.6,4
			c1.4,0,3.1-0.6,4.1-1.6l1.4,2.1c-1.5,1.4-3.6,2.1-5.9,2.1C177.4,50.4,174.2,47.3,174.2,42.7z M181.6,37.7c-2.7,0-3.9,2.1-4,3.8
			h8.2C185.6,39.8,184.4,37.7,181.6,37.7z"/>
		<path fill="#FFFFFF" d="M199.6,50V30h8.8c4.2,0,6.5,2.8,6.5,6.3c0,3.4-2.3,6.2-6.5,6.2h-5.3V50H199.6z M211.4,36.3
			c0-1.9-1.4-3.2-3.4-3.2h-4.8v6.3h4.8C210,39.4,211.4,38.2,211.4,36.3z"/>
		<path fill="#FFFFFF" d="M217.8,50V30h3.1v20H217.8z"/>
		<path fill="#FFFFFF" d="M233.9,50v-1.6c-1.1,1.3-2.8,2-4.7,2c-2.3,0-5-1.6-5-4.8c0-3.4,2.6-4.7,5-4.7c2,0,3.6,0.6,4.7,1.9v-2.2
			c0-1.7-1.4-2.7-3.4-2.7c-1.6,0-3.1,0.6-4.3,1.9l-1.3-2.2c1.7-1.6,3.8-2.3,6.1-2.3c3.2,0,6.1,1.4,6.1,5.2V50H233.9z M233.9,46.7
			v-2.2c-0.8-1-2.1-1.5-3.5-1.5c-1.8,0-3.1,1-3.1,2.6c0,1.6,1.3,2.6,3.1,2.6C231.8,48.2,233.2,47.7,233.9,46.7z"/>
		<path fill="#FFFFFF" d="M241,52.8c0.3,0.2,0.8,0.2,1.2,0.2c1,0,1.7-0.3,2.1-1.3l0.7-1.7l-6-14.7h3.4l4.2,10.9l4.2-10.9h3.4
			l-7,17.1c-1,2.5-2.7,3.2-5,3.3c-0.5,0-1.4-0.1-1.8-0.2L241,52.8z"/>
		<path fill="#FFFFFF" d="M256.3,50V30h3.2v20H256.3z"/>
		<path fill="#FFFFFF" d="M263.1,31.8c0-1.1,0.9-2,2-2s1.9,0.9,1.9,2s-0.9,1.9-1.9,1.9S263.1,32.9,263.1,31.8z M263.5,50V35.5h3.2
			V50H263.5z"/>
		<path fill="#FFFFFF" d="M269.5,48.1l1.4-2.2c1,1,3,2,4.9,2c1.9,0,2.9-0.8,2.9-1.9c0-2.8-8.8-0.8-8.8-6.4c0-2.4,2-4.4,5.7-4.4
			c2.5,0,4.3,0.9,5.6,2l-1.3,2.2c-0.9-1-2.5-1.7-4.3-1.7c-1.6,0-2.7,0.8-2.7,1.8c0,2.5,8.8,0.6,8.8,6.4c0,2.6-2.1,4.5-6,4.5
			C273.2,50.4,271,49.5,269.5,48.1z"/>
		<path fill="#FFFFFF" d="M285.5,46.6v-8.4h-2.4v-2.7h2.4v-4h3.2v4h2.9v2.7h-2.9v7.6c0,1,0.5,1.7,1.4,1.7c0.6,0,1.1-0.3,1.4-0.5
			l0.8,2.4c-0.6,0.5-1.5,0.9-2.9,0.9C286.8,50.4,285.5,49,285.5,46.6z"/>
	</g>
</g>
</svg>
