<?xml version="1.0" encoding="utf-8"?>
<!-- Generator: Adobe Illustrator 17.1.0, SVG Export Plug-In . SVG Version: 6.00 Build 0)  -->
<!DOCTYPE svg PUBLIC "-//W3C//DTD SVG 1.1//EN" "http://www.w3.org/Graphics/SVG/1.1/DTD/svg11.dtd">
<svg version="1.1" id="Layer_1" xmlns="http://www.w3.org/2000/svg" xmlns:xlink="http://www.w3.org/1999/xlink" x="0px" y="0px"
	 viewBox="0 0 363 80" enable-background="new 0 0 363 80" xml:space="preserve">
<g>
	<path fill="#121314" d="M363,76c0,2.2-1.8,4-4,4H4c-2.2,0-4-1.8-4-4V4c0-2.2,1.8-4,4-4h355c2.2,0,4,1.8,4,4V76z"/>
	<g>
		<g>
			<g>
				<g>
					<path fill="#84BD00" d="M59.5,19.7c-11,0-20,9-20,20c0,11,9,20,20,20c11,0,20-9,20-20C79.5,28.7,70.6,19.7,59.5,19.7z
						 M68.7,48.6c-0.4,0.6-1.1,0.8-1.7,0.4c-4.7-2.9-10.6-3.5-17.6-1.9c-0.7,0.2-1.3-0.3-1.5-0.9c-0.2-0.7,0.3-1.3,0.9-1.5
						c7.6-1.7,14.2-1,19.4,2.2C68.9,47.2,69,48,68.7,48.6z M71.1,43.1c-0.5,0.7-1.4,1-2.1,0.5c-5.4-3.3-13.6-4.3-19.9-2.3
						c-0.8,0.2-1.7-0.2-1.9-1c-0.2-0.8,0.2-1.7,1-1.9c7.3-2.2,16.3-1.1,22.5,2.7C71.3,41.4,71.6,42.4,71.1,43.1z M71.3,37.5
						c-6.4-3.8-17.1-4.2-23.2-2.3c-1,0.3-2-0.3-2.3-1.2c-0.3-1,0.3-2,1.2-2.3c7.1-2.1,18.8-1.7,26.2,2.7c0.9,0.5,1.2,1.7,0.7,2.6
						C73.4,37.7,72.2,38,71.3,37.5z"/>
				</g>
			</g>
		</g>
		<g>
			<path fill="#FFFFFF" d="M101.4,49.7v-20h3.5v16.9h8.8v3.1H101.4z"/>
			<path fill="#FFFFFF" d="M116.4,31.5c0-1.1,0.9-2,2-2s1.9,0.9,1.9,2s-0.9,1.9-1.9,1.9S116.4,32.6,116.4,31.5z M116.7,49.7V35.2
				h3.1v14.5H116.7z"/>
			<path fill="#FFFFFF" d="M122.7,47.8l1.4-2.2c1,1,3,2,4.9,2c1.9,0,2.9-0.8,2.9-1.9c0-2.8-8.8-0.8-8.8-6.4c0-2.4,2-4.4,5.7-4.4
				c2.5,0,4.3,0.9,5.6,2l-1.3,2.2c-0.9-1-2.5-1.7-4.3-1.7c-1.6,0-2.7,0.8-2.7,1.8c0,2.5,8.8,0.6,8.8,6.4c0,2.6-2.1,4.5-6,4.5
				C126.4,50.1,124.2,49.3,122.7,47.8z"/>
			<path fill="#FFFFFF" d="M138.8,46.3V38h-2.4v-2.7h2.4v-4h3.1v4h2.9V38h-2.9v7.6c0,1,0.5,1.7,1.4,1.7c0.6,0,1.1-0.3,1.4-0.5
				l0.7,2.4c-0.6,0.5-1.5,0.9-2.9,0.9C140,50.1,138.8,48.8,138.8,46.3z"/>
			<path fill="#FFFFFF" d="M146.8,42.5c0-4.2,3.1-7.6,7.3-7.6c4.4,0,7.1,3.3,7.1,7.9v0.8h-11.2c0.2,2.2,1.9,4,4.6,4
				c1.4,0,3.1-0.6,4.1-1.6l1.4,2.1c-1.5,1.4-3.6,2.1-5.9,2.1C150,50.1,146.8,47.1,146.8,42.5z M154.1,37.5c-2.7,0-3.9,2.1-4,3.8h8.2
				C158.2,39.6,157,37.5,154.1,37.5z"/>
			<path fill="#FFFFFF" d="M174.2,49.7v-9.1c0-2.3-1.2-3-2.9-3c-1.6,0-3,1-3.7,1.9v10.1h-3.1V35.2h3.1v2c1-1.1,2.8-2.3,5.1-2.3
				c3.1,0,4.7,1.7,4.7,4.7v10.2H174.2z"/>
			<path fill="#FFFFFF" d="M188.3,42.5c0-4.2,2.8-7.6,7.4-7.6c4.6,0,7.4,3.4,7.4,7.6c0,4.1-2.8,7.6-7.4,7.6
				C191.1,50.1,188.3,46.6,188.3,42.5z M199.9,42.5c0-2.5-1.5-4.8-4.2-4.8c-2.7,0-4.2,2.2-4.2,4.8c0,2.6,1.5,4.8,4.2,4.8
				C198.4,47.3,199.9,45,199.9,42.5z"/>
			<path fill="#FFFFFF" d="M216.2,49.7v-9.1c0-2.3-1.2-3-2.9-3c-1.6,0-3,1-3.7,1.9v10.1h-3.1V35.2h3.1v2c1-1.1,2.8-2.3,5.1-2.3
				c3.1,0,4.7,1.7,4.7,4.7v10.2H216.2z"/>
			<path fill="#FFFFFF" d="M230,46.9l2-2.7c1.4,1.5,3.5,2.8,6.3,2.8c2.9,0,4-1.4,4-2.8c0-4.2-11.6-1.6-11.6-8.9
				c0-3.3,2.9-5.9,7.3-5.9c3.1,0,5.6,1,7.5,2.8l-2,2.6c-1.6-1.6-3.7-2.3-5.8-2.3c-2,0-3.4,1-3.4,2.5c0,3.8,11.6,1.4,11.6,8.9
				c0,3.3-2.4,6.2-7.7,6.2C234.4,50.1,231.8,48.8,230,46.9z"/>
			<path fill="#FFFFFF" d="M252.1,47.7v7.5H249v-20h3.1v2c1.1-1.4,2.8-2.3,4.6-2.3c3.7,0,6.4,2.8,6.4,7.6s-2.7,7.6-6.4,7.6
				C255,50.1,253.3,49.2,252.1,47.7z M260,42.5c0-2.8-1.6-4.8-4.1-4.8c-1.5,0-3,0.8-3.7,1.9v5.7c0.7,1.1,2.2,2,3.7,2
				C258.4,47.3,260,45.3,260,42.5z"/>
			<path fill="#FFFFFF" d="M265.5,42.5c0-4.2,2.8-7.6,7.4-7.6c4.6,0,7.4,3.4,7.4,7.6c0,4.1-2.8,7.6-7.4,7.6
				C268.3,50.1,265.5,46.6,265.5,42.5z M277.1,42.5c0-2.5-1.5-4.8-4.2-4.8c-2.7,0-4.2,2.2-4.2,4.8c0,2.6,1.5,4.8,4.2,4.8
				C275.6,47.3,277.1,45,277.1,42.5z"/>
			<path fill="#FFFFFF" d="M284.2,46.3V38h-2.4v-2.7h2.4v-4h3.1v4h2.9V38h-2.9v7.6c0,1,0.5,1.7,1.4,1.7c0.6,0,1.1-0.3,1.4-0.5
				l0.7,2.4c-0.6,0.5-1.5,0.9-2.9,0.9C285.5,50.1,284.2,48.8,284.2,46.3z"/>
			<path fill="#FFFFFF" d="M292.8,31.5c0-1.1,0.9-2,2-2s1.9,0.9,1.9,2s-0.9,1.9-1.9,1.9S292.8,32.6,292.8,31.5z M293.2,49.7V35.2
				h3.1v14.5H293.2z"/>
			<path fill="#FFFFFF" d="M301.2,49.7V38h-2.4v-2.7h2.4v-0.8c0-3.1,1.8-5,4.6-5c1.3,0,2.6,0.3,3.5,1.3l-1.2,1.9
				c-0.4-0.4-1-0.6-1.6-0.6c-1.3,0-2,0.8-2,2.4v0.8h2.9V38h-2.9v11.8H301.2z"/>
			<path fill="#FFFFFF" d="M309.5,52.6c0.3,0.2,0.8,0.2,1.2,0.2c1,0,1.7-0.3,2.1-1.3l0.7-1.7l-6-14.7h3.4l4.2,10.9l4.2-10.9h3.4
				l-7,17.1c-1,2.5-2.7,3.2-4.9,3.3c-0.5,0-1.3-0.1-1.8-0.2L309.5,52.6z"/>
		</g>
	</g>
</g>
</svg>
