<?xml version="1.0" encoding="utf-8"?>
<!-- Generator: Adobe Illustrator 17.1.0, SVG Export Plug-In . SVG Version: 6.00 Build 0)  -->
<!DOCTYPE svg PUBLIC "-//W3C//DTD SVG 1.1//EN" "http://www.w3.org/Graphics/SVG/1.1/DTD/svg11.dtd">
<svg version="1.1" id="Layer_1" xmlns="http://www.w3.org/2000/svg" xmlns:xlink="http://www.w3.org/1999/xlink" x="0px" y="0px"
	 viewBox="0 0 197 80" enable-background="new 0 0 197 80" xml:space="preserve">
<g>
	<path fill="#121314" d="M197,76c0,2.2-1.8,4-4,4H4c-2.2,0-4-1.8-4-4V4c0-2.2,1.8-4,4-4h189c2.2,0,4,1.8,4,4V76z"/>
	<g>
		<g>
			<g>
				<g>
					<path fill="#84BD00" d="M59.5,19.7c-11,0-20,9-20,20c0,11,9,20,20,20c11,0,20-9,20-20C79.5,28.7,70.6,19.7,59.5,19.7z
						 M68.7,48.6c-0.4,0.6-1.1,0.8-1.7,0.4c-4.7-2.9-10.6-3.5-17.6-1.9c-0.7,0.2-1.3-0.3-1.5-0.9c-0.2-0.7,0.3-1.3,0.9-1.5
						c7.6-1.7,14.2-1,19.4,2.2C68.9,47.2,69,48,68.7,48.6z M71.1,43.1c-0.5,0.7-1.4,1-2.1,0.5c-5.4-3.3-13.6-4.3-19.9-2.3
						c-0.8,0.2-1.7-0.2-1.9-1c-0.2-0.8,0.2-1.7,1-1.9c7.3-2.2,16.3-1.1,22.5,2.7C71.3,41.4,71.6,42.4,71.1,43.1z M71.3,37.5
						c-6.4-3.8-17.1-4.2-23.2-2.3c-1,0.3-2-0.3-2.3-1.2c-0.3-1,0.3-2,1.2-2.3c7.1-2.1,18.8-1.7,26.2,2.7c0.9,0.5,1.2,1.7,0.7,2.6
						C73.4,37.7,72.2,38,71.3,37.5z"/>
				</g>
			</g>
		</g>
		<g>
			<path fill="#FFFFFF" d="M101.6,49.7v-20h8.8c4.2,0,6.5,2.8,6.5,6.3c0,3.4-2.3,6.2-6.5,6.2h-5.3v7.5H101.6z M113.4,36
				c0-1.9-1.4-3.2-3.4-3.2h-4.8v6.3h4.8C112,39.1,113.4,37.9,113.4,36z"/>
			<path fill="#FFFFFF" d="M119.8,49.7v-20h3.1v20H119.8z"/>
			<path fill="#FFFFFF" d="M135.9,49.7v-1.6c-1.1,1.3-2.8,2-4.7,2c-2.3,0-5-1.6-5-4.8c0-3.4,2.6-4.7,5-4.7c2,0,3.6,0.6,4.7,1.9v-2.2
				c0-1.7-1.4-2.7-3.4-2.7c-1.6,0-3.1,0.6-4.3,1.9l-1.3-2.2c1.7-1.6,3.8-2.3,6.1-2.3c3.2,0,6.1,1.4,6.1,5.2v9.6H135.9z M135.9,46.4
				v-2.2c-0.8-1-2.1-1.5-3.4-1.5c-1.8,0-3.1,1-3.1,2.6c0,1.6,1.4,2.6,3.1,2.6C133.8,47.9,135.2,47.4,135.9,46.4z"/>
			<path fill="#FFFFFF" d="M143,52.6c0.3,0.2,0.8,0.2,1.2,0.2c1,0,1.7-0.3,2.1-1.3l0.7-1.7l-6-14.7h3.4l4.2,10.9l4.2-10.9h3.4
				l-7,17.1c-1,2.5-2.7,3.2-4.9,3.3c-0.5,0-1.4-0.1-1.8-0.2L143,52.6z"/>
		</g>
	</g>
</g>
</svg>
