<?xml version="1.0" encoding="utf-8"?>
<!-- Generator: Adobe Illustrator 17.1.0, SVG Export Plug-In . SVG Version: 6.00 Build 0)  -->
<!DOCTYPE svg PUBLIC "-//W3C//DTD SVG 1.1//EN" "http://www.w3.org/Graphics/SVG/1.1/DTD/svg11.dtd">
<svg version="1.1" id="Layer_1" xmlns="http://www.w3.org/2000/svg" xmlns:xlink="http://www.w3.org/1999/xlink" x="0px" y="0px"
	 viewBox="0 0 520 88" enable-background="new 0 0 520 88" xml:space="preserve">
<g>
	<g>
		<path fill="#648F00" d="M520,44c0,24.3-19.7,44-44,44H44C19.7,88,0,68.3,0,44l0,0C0,19.7,19.7,0,44,0h432C500.3,0,520,19.7,520,44
			L520,44z"/>
	</g>
	<g>
		<g>
			<g>
				<g>
					<path fill="#FFFFFF" d="M152.9,22.2c-12.2,0-22,9.8-22,22c0,12.2,9.8,22,22,22c12.2,0,22-9.8,22-22
						C174.9,32.1,165.1,22.2,152.9,22.2z M163,54c-0.4,0.6-1.2,0.9-1.9,0.5c-5.2-3.2-11.7-3.9-19.3-2.1c-0.7,0.2-1.5-0.3-1.6-1
						c-0.2-0.7,0.3-1.5,1-1.6c8.4-1.9,15.6-1.1,21.4,2.5C163.2,52.5,163.4,53.3,163,54z M165.7,48c-0.5,0.8-1.6,1.1-2.4,0.6
						c-5.9-3.6-14.9-4.7-21.9-2.6c-0.9,0.3-1.9-0.2-2.1-1.1c-0.3-0.9,0.2-1.9,1.1-2.1c8-2.4,17.9-1.3,24.7,2.9
						C166,46.1,166.2,47.2,165.7,48z M166,41.7c-7.1-4.2-18.8-4.6-25.6-2.5c-1.1,0.3-2.2-0.3-2.6-1.4c-0.3-1.1,0.3-2.2,1.4-2.6
						c7.8-2.4,20.7-1.9,28.9,2.9c1,0.6,1.3,1.8,0.7,2.8C168.2,42,166.9,42.3,166,41.7z"/>
				</g>
			</g>
		</g>
		<g>
			<path fill="#FFFFFF" d="M196.9,43.6c0-6.2,4.6-10.3,10.5-10.3c4,0,6.5,2.1,8,4.5l-3,1.6c-1-1.7-2.9-2.9-5-2.9c-4,0-6.9,3-6.9,7.2
				c0,4.2,2.9,7.2,6.9,7.2c2.1,0,4.1-1.3,5-2.9l3,1.5c-1.5,2.4-4,4.5-8,4.5C201.5,53.9,196.9,49.7,196.9,43.6z"/>
			<path fill="#FFFFFF" d="M218.2,53.6V39.1h3.1v2.1c1.1-1.4,2.8-2.5,4.7-2.5v3.1c-0.3-0.1-0.6-0.1-1-0.1c-1.3,0-3.1,0.9-3.8,2v9.9
				H218.2z"/>
			<path fill="#FFFFFF" d="M227.7,46.3c0-4.2,3.1-7.6,7.3-7.6c4.4,0,7.1,3.3,7.1,7.9v0.8H231c0.2,2.2,1.9,4,4.6,4
				c1.4,0,3.1-0.6,4.1-1.6l1.4,2.1c-1.5,1.4-3.6,2.1-5.9,2.1C230.9,53.9,227.7,50.9,227.7,46.3z M235,41.3c-2.7,0-3.9,2.1-4,3.8h8.2
				C239.1,43.4,237.9,41.3,235,41.3z"/>
			<path fill="#FFFFFF" d="M254.2,53.6V52c-1.1,1.3-2.8,2-4.7,2c-2.3,0-5-1.6-5-4.8c0-3.4,2.6-4.7,5-4.7c2,0,3.6,0.6,4.7,1.9v-2.2
				c0-1.7-1.4-2.7-3.4-2.7c-1.6,0-3.1,0.6-4.3,1.9l-1.3-2.2c1.7-1.6,3.8-2.3,6.1-2.3c3.2,0,6.1,1.4,6.1,5.2v9.6H254.2z M254.2,50.3
				v-2.2c-0.8-1-2.1-1.5-3.5-1.5c-1.8,0-3.1,1-3.1,2.6c0,1.6,1.3,2.6,3.1,2.6C252.1,51.8,253.4,51.3,254.2,50.3z"/>
			<path fill="#FFFFFF" d="M262.1,50.2v-8.4h-2.4v-2.7h2.4v-4h3.2v4h2.9v2.7h-2.9v7.6c0,1,0.5,1.7,1.4,1.7c0.6,0,1.1-0.3,1.4-0.5
				l0.8,2.4c-0.6,0.5-1.5,0.9-2.9,0.9C263.3,53.9,262.1,52.6,262.1,50.2z"/>
			<path fill="#FFFFFF" d="M270.1,46.3c0-4.2,3.1-7.6,7.3-7.6c4.3,0,7.1,3.3,7.1,7.9v0.8h-11.2c0.2,2.2,1.9,4,4.6,4
				c1.4,0,3.1-0.6,4.1-1.6l1.4,2.1c-1.5,1.4-3.6,2.1-5.9,2.1C273.3,53.9,270.1,50.9,270.1,46.3z M277.4,41.3c-2.7,0-3.9,2.1-4,3.8
				h8.2C281.5,43.4,280.3,41.3,277.4,41.3z"/>
			<path fill="#FFFFFF" d="M295.5,53.6v-20h8.8c4.2,0,6.5,2.8,6.5,6.3c0,3.4-2.3,6.2-6.5,6.2H299v7.5H295.5z M307.3,39.8
				c0-1.9-1.4-3.2-3.4-3.2H299V43h4.8C305.8,43,307.3,41.7,307.3,39.8z"/>
			<path fill="#FFFFFF" d="M313.7,53.6v-20h3.1v20H313.7z"/>
			<path fill="#FFFFFF" d="M329.8,53.6V52c-1.1,1.3-2.8,2-4.7,2c-2.3,0-5-1.6-5-4.8c0-3.4,2.6-4.7,5-4.7c2,0,3.6,0.6,4.7,1.9v-2.2
				c0-1.7-1.4-2.7-3.4-2.7c-1.6,0-3.1,0.6-4.3,1.9l-1.3-2.2c1.7-1.6,3.8-2.3,6.1-2.3c3.2,0,6.1,1.4,6.1,5.2v9.6H329.8z M329.8,50.3
				v-2.2c-0.8-1-2.1-1.5-3.5-1.5c-1.8,0-3.1,1-3.1,2.6c0,1.6,1.3,2.6,3.1,2.6C327.7,51.8,329.1,51.3,329.8,50.3z"/>
			<path fill="#FFFFFF" d="M336.9,56.4c0.3,0.2,0.8,0.2,1.2,0.2c1,0,1.7-0.3,2.1-1.3l0.7-1.7l-6-14.7h3.4l4.2,10.9l4.2-10.9h3.4
				l-7,17.1c-1,2.5-2.7,3.2-5,3.3c-0.5,0-1.4-0.1-1.8-0.2L336.9,56.4z"/>
			<path fill="#FFFFFF" d="M352.1,53.6v-20h3.2v20H352.1z"/>
			<path fill="#FFFFFF" d="M359,35.4c0-1.1,0.9-2,2-2s1.9,0.9,1.9,2s-0.9,1.9-1.9,1.9S359,36.4,359,35.4z M359.4,53.6V39.1h3.2v14.5
				H359.4z"/>
			<path fill="#FFFFFF" d="M365.4,51.7l1.4-2.2c1,1,3,2,4.9,2c1.9,0,2.9-0.8,2.9-1.9c0-2.8-8.8-0.8-8.8-6.4c0-2.4,2-4.4,5.7-4.4
				c2.5,0,4.3,0.9,5.6,2l-1.3,2.2c-0.9-1-2.5-1.7-4.3-1.7c-1.6,0-2.7,0.8-2.7,1.8c0,2.5,8.8,0.6,8.8,6.4c0,2.6-2.1,4.5-6,4.5
				C369.1,53.9,366.9,53.1,365.4,51.7z"/>
			<path fill="#FFFFFF" d="M381.4,50.2v-8.4H379v-2.7h2.4v-4h3.2v4h2.9v2.7h-2.9v7.6c0,1,0.5,1.7,1.4,1.7c0.6,0,1.1-0.3,1.4-0.5
				l0.8,2.4c-0.6,0.5-1.5,0.9-2.9,0.9C382.7,53.9,381.4,52.6,381.4,50.2z"/>
		</g>
	</g>
</g>
</svg>
