<?xml version="1.0" encoding="utf-8"?>
<!-- Generator: Adobe Illustrator 17.1.0, SVG Export Plug-In . SVG Version: 6.00 Build 0)  -->
<!DOCTYPE svg PUBLIC "-//W3C//DTD SVG 1.1//EN" "http://www.w3.org/Graphics/SVG/1.1/DTD/svg11.dtd">
<svg version="1.1" id="Layer_1" xmlns="http://www.w3.org/2000/svg" xmlns:xlink="http://www.w3.org/1999/xlink" x="0px" y="0px"
	 viewBox="0 0 318 88" enable-background="new 0 0 318 88" xml:space="preserve">
<g>
	<path fill="#648F00" d="M318,44c0,24.3-19.7,44-44,44H44C19.7,88,0,68.3,0,44l0,0C0,19.7,19.7,0,44,0h230C298.3,0,318,19.7,318,44
		L318,44z"/>
	<g>
		<g>
			<path fill="#FFFFFF" d="M153.5,53.6v-20h3.5v16.9h8.8v3.1H153.5z"/>
			<path fill="#FFFFFF" d="M168.5,35.4c0-1.1,0.9-2,2-2s1.9,0.9,1.9,2s-0.9,1.9-1.9,1.9S168.5,36.4,168.5,35.4z M168.8,53.6V39.1
				h3.1v14.5H168.8z"/>
			<path fill="#FFFFFF" d="M174.8,51.7l1.4-2.2c1,1,3,2,4.9,2c1.9,0,2.9-0.8,2.9-1.9c0-2.8-8.8-0.8-8.8-6.4c0-2.4,2-4.4,5.7-4.4
				c2.5,0,4.3,0.9,5.6,2l-1.3,2.2c-0.9-1-2.5-1.7-4.3-1.7c-1.6,0-2.7,0.8-2.7,1.8c0,2.5,8.8,0.6,8.8,6.4c0,2.6-2.1,4.5-6,4.5
				C178.6,53.9,176.3,53.1,174.8,51.7z"/>
			<path fill="#FFFFFF" d="M190.9,50.2v-8.4h-2.4v-2.7h2.4v-4h3.2v4h2.9v2.7H194v7.6c0,1,0.5,1.7,1.4,1.7c0.6,0,1.1-0.3,1.4-0.5
				l0.8,2.4c-0.6,0.5-1.5,0.9-2.9,0.9C192.1,53.9,190.9,52.6,190.9,50.2z"/>
			<path fill="#FFFFFF" d="M198.9,46.3c0-4.2,3.1-7.6,7.3-7.6c4.4,0,7.1,3.3,7.1,7.9v0.8h-11.2c0.2,2.2,1.9,4,4.6,4
				c1.4,0,3.1-0.6,4.1-1.6l1.4,2.1c-1.5,1.4-3.6,2.1-5.9,2.1C202.1,53.9,198.9,50.9,198.9,46.3z M206.2,41.3c-2.7,0-3.9,2.1-4,3.8
				h8.2C210.3,43.4,209.1,41.3,206.2,41.3z"/>
			<path fill="#FFFFFF" d="M226.3,53.6v-9.1c0-2.3-1.2-3-2.9-3c-1.6,0-3,1-3.7,1.9v10.1h-3.2V39.1h3.2v2c1-1.1,2.8-2.3,5.1-2.3
				c3.1,0,4.7,1.7,4.7,4.7v10.2H226.3z"/>
		</g>
		<g>
			<g>
				<path fill="#FFFFFF" d="M109.5,21.7c-12.2,0-22,9.8-22,22c0,12.2,9.8,22,22,22c12.2,0,22-9.8,22-22
					C131.5,31.6,121.7,21.7,109.5,21.7z M119.6,53.5c-0.4,0.6-1.2,0.9-1.9,0.5c-5.2-3.2-11.7-3.9-19.3-2.1c-0.7,0.2-1.5-0.3-1.6-1
					c-0.2-0.7,0.3-1.5,1-1.6c8.4-1.9,15.6-1.1,21.4,2.5C119.8,52,120,52.8,119.6,53.5z M122.3,47.5c-0.5,0.8-1.6,1.1-2.4,0.6
					C114,44.4,105,43.3,98,45.5c-0.9,0.3-1.9-0.2-2.1-1.1c-0.3-0.9,0.2-1.9,1.1-2.1c8-2.4,17.9-1.3,24.7,2.9
					C122.5,45.6,122.8,46.7,122.3,47.5z M122.5,41.2c-7.1-4.2-18.8-4.6-25.6-2.5c-1.1,0.3-2.2-0.3-2.6-1.4c-0.3-1.1,0.3-2.2,1.4-2.6
					c7.8-2.4,20.7-1.9,28.9,2.9c1,0.6,1.3,1.8,0.7,2.8C124.8,41.5,123.5,41.8,122.5,41.2z"/>
			</g>
		</g>
	</g>
</g>
</svg>
