<?xml version="1.0" encoding="utf-8"?>
<!-- Generator: Adobe Illustrator 17.1.0, SVG Export Plug-In . SVG Version: 6.00 Build 0)  -->
<!DOCTYPE svg PUBLIC "-//W3C//DTD SVG 1.1//EN" "http://www.w3.org/Graphics/SVG/1.1/DTD/svg11.dtd">
<svg version="1.1" id="Layer_1" xmlns="http://www.w3.org/2000/svg" xmlns:xlink="http://www.w3.org/1999/xlink" x="0px" y="0px"
	 viewBox="0 0 318 88" enable-background="new 0 0 318 88" xml:space="preserve">
<g>
	<path fill="#121314" d="M318,44c0,24.3-19.7,44-44,44H44C19.7,88,0,68.3,0,44l0,0C0,19.7,19.7,0,44,0h230C298.3,0,318,19.7,318,44
		L318,44z"/>
	<g>
		<g>
			<path fill="#FFFFFF" d="M154,53.6v-20h3.5v16.9h8.8v3.1H154z"/>
			<path fill="#FFFFFF" d="M169,35.4c0-1.1,0.9-2,2-2s1.9,0.9,1.9,2s-0.9,1.9-1.9,1.9S169,36.4,169,35.4z M169.3,53.6V39.1h3.1v14.5
				H169.3z"/>
			<path fill="#FFFFFF" d="M175.3,51.7l1.4-2.2c1,1,3,2,4.9,2c1.9,0,2.9-0.8,2.9-1.9c0-2.8-8.8-0.8-8.8-6.4c0-2.4,2-4.4,5.7-4.4
				c2.5,0,4.3,0.9,5.6,2l-1.3,2.2c-0.9-1-2.5-1.7-4.3-1.7c-1.6,0-2.7,0.8-2.7,1.8c0,2.5,8.8,0.6,8.8,6.4c0,2.6-2.1,4.5-6,4.5
				C179,53.9,176.8,53.1,175.3,51.7z"/>
			<path fill="#FFFFFF" d="M191.4,50.2v-8.4H189v-2.7h2.4v-4h3.2v4h2.9v2.7h-2.9v7.6c0,1,0.5,1.7,1.4,1.7c0.6,0,1.1-0.3,1.4-0.5
				L198,53c-0.6,0.5-1.5,0.9-2.9,0.9C192.6,53.9,191.4,52.6,191.4,50.2z"/>
			<path fill="#FFFFFF" d="M199.4,46.3c0-4.2,3.1-7.6,7.3-7.6c4.4,0,7.1,3.3,7.1,7.9v0.8h-11.2c0.2,2.2,1.9,4,4.6,4
				c1.4,0,3.1-0.6,4.1-1.6l1.4,2.1c-1.5,1.4-3.6,2.1-5.9,2.1C202.6,53.9,199.4,50.9,199.4,46.3z M206.7,41.3c-2.7,0-3.9,2.1-4,3.8
				h8.2C210.8,43.4,209.6,41.3,206.7,41.3z"/>
			<path fill="#FFFFFF" d="M226.8,53.6v-9.1c0-2.3-1.2-3-2.9-3c-1.6,0-3,1-3.7,1.9v10.1H217V39.1h3.2v2c1-1.1,2.8-2.3,5.1-2.3
				c3.1,0,4.7,1.7,4.7,4.7v10.2H226.8z"/>
		</g>
		<g>
			<g>
				<path fill="#84BD00" d="M110,21.7c-12.2,0-22,9.8-22,22c0,12.2,9.8,22,22,22c12.2,0,22-9.8,22-22C132,31.6,122.2,21.7,110,21.7z
					 M120.1,53.5c-0.4,0.6-1.2,0.9-1.9,0.5c-5.2-3.2-11.7-3.9-19.3-2.1c-0.7,0.2-1.5-0.3-1.6-1c-0.2-0.7,0.3-1.5,1-1.6
					c8.4-1.9,15.6-1.1,21.4,2.5C120.3,52,120.5,52.8,120.1,53.5z M122.8,47.5c-0.5,0.8-1.6,1.1-2.4,0.6c-5.9-3.6-14.9-4.7-21.9-2.6
					c-0.9,0.3-1.9-0.2-2.1-1.1c-0.3-0.9,0.2-1.9,1.1-2.1c8-2.4,17.9-1.3,24.7,2.9C123,45.6,123.3,46.7,122.8,47.5z M123,41.2
					c-7.1-4.2-18.8-4.6-25.6-2.5c-1.1,0.3-2.2-0.3-2.6-1.4c-0.3-1.1,0.3-2.2,1.4-2.6c7.8-2.4,20.7-1.9,28.9,2.9
					c1,0.6,1.3,1.8,0.7,2.8C125.3,41.5,124,41.8,123,41.2z"/>
			</g>
		</g>
	</g>
</g>
</svg>
