<?xml version="1.0" encoding="utf-8"?>
<!-- Generator: Adobe Illustrator 17.1.0, SVG Export Plug-In . SVG Version: 6.00 Build 0)  -->
<!DOCTYPE svg PUBLIC "-//W3C//DTD SVG 1.1//EN" "http://www.w3.org/Graphics/SVG/1.1/DTD/svg11.dtd">
<svg version="1.1" id="Layer_1" xmlns="http://www.w3.org/2000/svg" xmlns:xlink="http://www.w3.org/1999/xlink" x="0px" y="0px"
	 viewBox="0 0 463 88" enable-background="new 0 0 463 88" xml:space="preserve">
<g>
	<path fill="#121314" d="M463,44c0,24.3-19.7,44-44,44H44C19.7,88,0,68.3,0,44l0,0C0,19.7,19.7,0,44,0h375C443.3,0,463,19.7,463,44
		L463,44z"/>
	<g>
		<g>
			<g>
				<g>
					<path fill="#84BD00" d="M110,22.2c-12.2,0-22,9.8-22,22c0,12.2,9.8,22,22,22c12.2,0,22-9.8,22-22C132,32.1,122.2,22.2,110,22.2
						z M120.1,54c-0.4,0.6-1.2,0.9-1.9,0.5c-5.2-3.2-11.7-3.9-19.3-2.1c-0.7,0.2-1.5-0.3-1.6-1c-0.2-0.7,0.3-1.5,1-1.6
						c8.4-1.9,15.6-1.1,21.4,2.5C120.3,52.5,120.5,53.3,120.1,54z M122.8,48c-0.5,0.8-1.6,1.1-2.4,0.6c-5.9-3.6-14.9-4.7-21.9-2.6
						c-0.9,0.3-1.9-0.2-2.1-1.1c-0.3-0.9,0.2-1.9,1.1-2.1c8-2.4,17.9-1.3,24.7,2.9C123,46.1,123.3,47.2,122.8,48z M123,41.7
						c-7.1-4.2-18.8-4.6-25.6-2.5c-1.1,0.3-2.2-0.3-2.6-1.4c-0.3-1.1,0.3-2.2,1.4-2.6c7.8-2.4,20.7-1.9,28.9,2.9
						c1,0.6,1.3,1.8,0.7,2.8C125.3,42,124,42.3,123,41.7z"/>
				</g>
			</g>
		</g>
		<g>
			<path fill="#FFFFFF" d="M154,55.1v-20h3.5V52h8.8v3.1H154z"/>
			<path fill="#FFFFFF" d="M169,36.9c0-1.1,0.9-2,2-2s2,0.9,2,2s-0.9,1.9-2,1.9S169,37.9,169,36.9z M169.3,55.1V40.6h3.1v14.5H169.3
				z"/>
			<path fill="#FFFFFF" d="M175.3,53.2l1.4-2.2c1,1,3,2,4.9,2c1.9,0,2.9-0.8,2.9-1.9c0-2.8-8.8-0.8-8.8-6.4c0-2.4,2-4.4,5.7-4.4
				c2.5,0,4.3,0.9,5.6,2l-1.3,2.2c-0.9-1-2.5-1.7-4.3-1.7c-1.7,0-2.7,0.8-2.7,1.8c0,2.5,8.8,0.6,8.8,6.4c0,2.6-2.1,4.5-6,4.5
				C179,55.4,176.8,54.6,175.3,53.2z"/>
			<path fill="#FFFFFF" d="M191.4,51.7v-8.4H189v-2.7h2.4v-4h3.1v4h2.9v2.7h-2.9v7.6c0,1,0.5,1.7,1.4,1.7c0.6,0,1.1-0.3,1.4-0.5
				l0.7,2.4c-0.6,0.5-1.5,0.9-2.9,0.9C192.6,55.4,191.4,54.1,191.4,51.7z"/>
			<path fill="#FFFFFF" d="M199.4,47.8c0-4.2,3.1-7.6,7.3-7.6c4.3,0,7.1,3.3,7.1,7.9v0.8h-11.2c0.2,2.2,1.9,4,4.6,4
				c1.4,0,3.1-0.6,4.1-1.6l1.4,2.1c-1.5,1.4-3.6,2.1-5.9,2.1C202.6,55.4,199.4,52.4,199.4,47.8z M206.7,42.8c-2.7,0-3.9,2.1-4.1,3.8
				h8.2C210.8,44.9,209.6,42.8,206.7,42.8z"/>
			<path fill="#FFFFFF" d="M226.8,55.1V46c0-2.3-1.2-3-2.9-3c-1.6,0-3,1-3.7,1.9v10.1H217V40.6h3.2v2c1-1.1,2.8-2.3,5.1-2.3
				c3.1,0,4.7,1.7,4.7,4.7v10.2H226.8z"/>
			<path fill="#FFFFFF" d="M240.9,47.8c0-4.2,2.8-7.6,7.4-7.6c4.6,0,7.4,3.4,7.4,7.6c0,4.1-2.8,7.6-7.4,7.6
				C243.7,55.4,240.9,52,240.9,47.8z M252.5,47.8c0-2.5-1.5-4.8-4.2-4.8c-2.7,0-4.2,2.2-4.2,4.8c0,2.6,1.5,4.8,4.2,4.8
				C251,52.6,252.5,50.4,252.5,47.8z"/>
			<path fill="#FFFFFF" d="M268.8,55.1V46c0-2.3-1.2-3-2.9-3c-1.6,0-3,1-3.7,1.9v10.1H259V40.6h3.1v2c1-1.1,2.8-2.3,5.1-2.3
				c3.1,0,4.7,1.7,4.7,4.7v10.2H268.8z"/>
			<path fill="#FFFFFF" d="M282.6,52.3l2-2.7c1.4,1.5,3.5,2.8,6.3,2.8c2.9,0,4-1.4,4-2.8c0-4.2-11.6-1.6-11.6-8.9
				c0-3.3,2.9-5.9,7.3-5.9c3.1,0,5.6,1,7.5,2.8l-2,2.6c-1.6-1.6-3.7-2.3-5.8-2.3c-2,0-3.4,1-3.4,2.5c0,3.8,11.6,1.4,11.6,8.9
				c0,3.3-2.4,6.2-7.7,6.2C287,55.4,284.4,54.1,282.6,52.3z"/>
			<path fill="#FFFFFF" d="M304.7,53.1v7.5h-3.1v-20h3.1v2c1.1-1.4,2.8-2.3,4.7-2.3c3.8,0,6.4,2.8,6.4,7.6s-2.7,7.6-6.4,7.6
				C307.6,55.4,305.9,54.6,304.7,53.1z M312.6,47.8c0-2.8-1.6-4.8-4.1-4.8c-1.5,0-3,0.8-3.7,1.9v5.7c0.7,1.1,2.2,2,3.7,2
				C311,52.6,312.6,50.6,312.6,47.8z"/>
			<path fill="#FFFFFF" d="M318.1,47.8c0-4.2,2.8-7.6,7.4-7.6c4.6,0,7.4,3.4,7.4,7.6c0,4.1-2.8,7.6-7.4,7.6
				C320.9,55.4,318.1,52,318.1,47.8z M329.7,47.8c0-2.5-1.5-4.8-4.2-4.8c-2.7,0-4.2,2.2-4.2,4.8c0,2.6,1.5,4.8,4.2,4.8
				C328.2,52.6,329.7,50.4,329.7,47.8z"/>
			<path fill="#FFFFFF" d="M336.8,51.7v-8.4h-2.4v-2.7h2.4v-4h3.2v4h2.9v2.7H340v7.6c0,1,0.5,1.7,1.4,1.7c0.6,0,1.1-0.3,1.4-0.5
				l0.8,2.4c-0.6,0.5-1.5,0.9-2.9,0.9C338.1,55.4,336.8,54.1,336.8,51.7z"/>
			<path fill="#FFFFFF" d="M345.4,36.9c0-1.1,0.9-2,2-2s1.9,0.9,1.9,2s-0.9,1.9-1.9,1.9S345.4,37.9,345.4,36.9z M345.8,55.1V40.6
				h3.2v14.5H345.8z"/>
			<path fill="#FFFFFF" d="M353.8,55.1V43.3h-2.4v-2.7h2.4v-0.8c0-3.1,1.8-5,4.6-5c1.3,0,2.6,0.3,3.5,1.3l-1.2,1.9
				c-0.4-0.4-1-0.6-1.6-0.6c-1.3,0-2,0.8-2,2.4v0.8h2.9v2.7h-2.9v11.8H353.8z"/>
			<path fill="#FFFFFF" d="M362.1,57.9c0.3,0.2,0.8,0.2,1.2,0.2c1,0,1.7-0.3,2.1-1.3l0.7-1.7l-6-14.7h3.4l4.2,10.9l4.2-10.9h3.4
				l-7,17.1c-1,2.5-2.7,3.2-4.9,3.3c-0.5,0-1.3-0.1-1.8-0.2L362.1,57.9z"/>
		</g>
	</g>
</g>
</svg>
