<?xml version="1.0" encoding="utf-8"?>
<!-- Generator: Adobe Illustrator 17.1.0, SVG Export Plug-In . SVG Version: 6.00 Build 0)  -->
<!DOCTYPE svg PUBLIC "-//W3C//DTD SVG 1.1//EN" "http://www.w3.org/Graphics/SVG/1.1/DTD/svg11.dtd">
<svg version="1.1" id="Layer_1" xmlns="http://www.w3.org/2000/svg" xmlns:xlink="http://www.w3.org/1999/xlink" x="0px" y="0px"
	 viewBox="0 0 297 88" enable-background="new 0 0 297 88" xml:space="preserve">
<g>
	<path fill="#121314" d="M297,44c0,24.3-19.7,44-44,44H44C19.7,88,0,68.3,0,44l0,0C0,19.7,19.7,0,44,0h209C277.3,0,297,19.7,297,44
		L297,44z"/>
	<g>
		<g>
			<path fill="#FFFFFF" d="M154,53.6v-20h8.8c4.2,0,6.5,2.8,6.5,6.3c0,3.4-2.3,6.2-6.5,6.2h-5.3v7.5H154z M165.7,39.8
				c0-1.9-1.4-3.2-3.4-3.2h-4.8V43h4.8C164.3,43,165.7,41.7,165.7,39.8z"/>
			<path fill="#FFFFFF" d="M172.2,53.6v-20h3.2v20H172.2z"/>
			<path fill="#FFFFFF" d="M188.3,53.6V52c-1.1,1.3-2.8,2-4.7,2c-2.3,0-5-1.6-5-4.8c0-3.4,2.6-4.7,5-4.7c2,0,3.6,0.6,4.7,1.9v-2.2
				c0-1.7-1.4-2.7-3.4-2.7c-1.6,0-3.1,0.6-4.3,1.9l-1.3-2.2c1.7-1.6,3.8-2.3,6.1-2.3c3.2,0,6.1,1.4,6.1,5.2v9.6H188.3z M188.3,50.3
				v-2.2c-0.8-1-2.1-1.5-3.5-1.5c-1.8,0-3.1,1-3.1,2.6c0,1.6,1.3,2.6,3.1,2.6C186.2,51.8,187.5,51.3,188.3,50.3z"/>
			<path fill="#FFFFFF" d="M195.4,56.4c0.3,0.2,0.8,0.2,1.2,0.2c1,0,1.7-0.3,2.1-1.3l0.7-1.7l-6-14.7h3.4l4.2,10.9l4.2-10.9h3.4
				l-7,17.1c-1,2.5-2.7,3.2-4.9,3.3c-0.5,0-1.4-0.1-1.8-0.2L195.4,56.4z"/>
		</g>
		<g>
			<g>
				<g>
					<path fill="#84BD00" d="M110,21.7c-12.2,0-22,9.8-22,22c0,12.2,9.8,22,22,22c12.2,0,22-9.8,22-22C132,31.6,122.2,21.7,110,21.7
						z M120.1,53.5c-0.4,0.6-1.2,0.9-1.9,0.5c-5.2-3.2-11.7-3.9-19.3-2.1c-0.7,0.2-1.5-0.3-1.6-1c-0.2-0.7,0.3-1.5,1-1.6
						c8.4-1.9,15.6-1.1,21.4,2.5C120.3,52,120.5,52.8,120.1,53.5z M122.8,47.5c-0.5,0.8-1.6,1.1-2.4,0.6c-5.9-3.6-14.9-4.7-21.9-2.6
						c-0.9,0.3-1.9-0.2-2.1-1.1c-0.3-0.9,0.2-1.9,1.1-2.1c8-2.4,17.9-1.3,24.7,2.9C123,45.6,123.3,46.7,122.8,47.5z M123,41.2
						c-7.1-4.2-18.8-4.6-25.6-2.5c-1.1,0.3-2.2-0.3-2.6-1.4c-0.3-1.1,0.3-2.2,1.4-2.6c7.8-2.4,20.7-1.9,28.9,2.9
						c1,0.6,1.3,1.8,0.7,2.8C125.3,41.5,124,41.8,123,41.2z"/>
				</g>
			</g>
		</g>
	</g>
</g>
</svg>
