<?xml version="1.0" encoding="utf-8"?>
<!-- Generator: Adobe Illustrator 17.1.0, SVG Export Plug-In . SVG Version: 6.00 Build 0)  -->
<!DOCTYPE svg PUBLIC "-//W3C//DTD SVG 1.1//EN" "http://www.w3.org/Graphics/SVG/1.1/DTD/svg11.dtd">
<svg version="1.1" id="Layer_1" xmlns="http://www.w3.org/2000/svg" xmlns:xlink="http://www.w3.org/1999/xlink" x="0px" y="0px"
	 viewBox="0 0 488 88" enable-background="new 0 0 488 88" xml:space="preserve">
<g>
	<path fill="#648F00" d="M488,44c0,24.3-19.7,44-44,44H44C19.7,88,0,68.3,0,44l0,0C0,19.7,19.7,0,44,0h400C468.3,0,488,19.7,488,44
		L488,44z"/>
	<g>
		<g>
			<g>
				<path fill="#FFFFFF" d="M78.6,23.7c-11,0-20,9-20,20c0,11,9,20,20,20c11,0,20-9,20-20C98.6,32.7,89.6,23.7,78.6,23.7z
					 M87.7,52.6c-0.4,0.6-1.1,0.8-1.7,0.4c-4.7-2.9-10.6-3.5-17.6-1.9c-0.7,0.2-1.3-0.3-1.5-0.9c-0.2-0.7,0.3-1.3,0.9-1.5
					c7.6-1.7,14.2-1,19.4,2.2C87.9,51.2,88.1,52,87.7,52.6z M90.2,47.1c-0.5,0.7-1.4,1-2.1,0.5c-5.4-3.3-13.6-4.3-19.9-2.3
					c-0.8,0.2-1.7-0.2-1.9-1c-0.2-0.8,0.2-1.7,1-1.9c7.3-2.2,16.3-1.1,22.5,2.7C90.4,45.4,90.6,46.4,90.2,47.1z M90.4,41.5
					c-6.4-3.8-17.1-4.2-23.2-2.3c-1,0.3-2-0.3-2.3-1.2c-0.3-1,0.3-2,1.2-2.3c7.1-2.1,18.8-1.7,26.2,2.7c0.9,0.5,1.2,1.7,0.7,2.6
					C92.4,41.7,91.3,42,90.4,41.5z"/>
			</g>
		</g>
	</g>
	<g>
		<path fill="#FFFFFF" d="M120.3,54.6V35.9h3.3v15.8h8.2v2.9H120.3z"/>
		<path fill="#FFFFFF" d="M134.5,45.3c0-5.6,3.9-9.7,9.5-9.7c5.6,0,9.5,4.1,9.5,9.7c0,5.6-4,9.7-9.5,9.7
			C138.4,54.9,134.5,50.8,134.5,45.3z M150.2,45.3c0-3.9-2.4-6.7-6.2-6.7c-3.8,0-6.2,2.9-6.2,6.7c0,3.8,2.4,6.7,6.2,6.7
			C147.8,52,150.2,49.1,150.2,45.3z"/>
		<path fill="#FFFFFF" d="M157.3,45.3c0-5.9,4.4-9.7,9.8-9.7c3.6,0,6,1.7,7.5,3.9l-2.7,1.5c-1-1.4-2.8-2.5-4.8-2.5
			c-3.7,0-6.4,2.8-6.4,6.7c0,3.9,2.7,6.7,6.4,6.7c1.9,0,3.6-0.9,4.4-1.7v-2.9h-5.6v-2.9h8.8v7c-1.8,2-4.5,3.4-7.7,3.4
			C161.7,54.9,157.3,51.1,157.3,45.3z"/>
		<path fill="#FFFFFF" d="M188.2,54.6V35.9h3.3v18.7H188.2z"/>
		<path fill="#FFFFFF" d="M209.9,54.6l-9.7-13.4v13.4h-3.3V35.9h3.4l9.5,12.9V35.9h3.3v18.7H209.9z"/>
		<path fill="#FFFFFF" d="M241.3,54.6l-3.6-13.8l-3.6,13.8h-3.5l-5.3-18.7h3.6l3.6,14.4l3.9-14.4h2.6l3.9,14.4l3.6-14.4h3.7
			l-5.3,18.7H241.3z"/>
		<path fill="#FFFFFF" d="M253.7,54.6V35.9h3.3v18.7H253.7z"/>
		<path fill="#FFFFFF" d="M266.8,54.6V38.8h-5.7v-2.9h14.6v2.9h-5.7v15.8H266.8z"/>
		<path fill="#FFFFFF" d="M292.9,54.6v-8.2h-9.7v8.2h-3.3V35.9h3.3v7.6h9.7v-7.6h3.3v18.7H292.9z"/>
		<path fill="#FFFFFF" d="M309,51.9l1.8-2.5c1.3,1.4,3.3,2.6,5.9,2.6c2.7,0,3.7-1.3,3.7-2.6c0-3.9-10.9-1.5-10.9-8.3
			c0-3.1,2.7-5.5,6.8-5.5c2.9,0,5.3,1,7,2.6l-1.8,2.4c-1.5-1.5-3.5-2.2-5.4-2.2c-1.9,0-3.1,1-3.1,2.3c0,3.5,10.9,1.3,10.9,8.3
			c0,3.1-2.2,5.8-7.2,5.8C313.2,54.9,310.7,53.7,309,51.9z"/>
		<path fill="#FFFFFF" d="M328.2,54.6V35.9h8.2c3.9,0,6.1,2.7,6.1,5.9c0,3.2-2.2,5.8-6.1,5.8h-5v7H328.2z M339.2,41.8
			c0-1.8-1.3-3-3.2-3h-4.5v5.9h4.5C337.9,44.7,339.2,43.5,339.2,41.8z"/>
		<path fill="#FFFFFF" d="M345.9,45.3c0-5.6,3.9-9.7,9.5-9.7c5.6,0,9.5,4.1,9.5,9.7c0,5.6-4,9.7-9.5,9.7
			C349.8,54.9,345.9,50.8,345.9,45.3z M361.6,45.3c0-3.9-2.4-6.7-6.2-6.7c-3.8,0-6.2,2.9-6.2,6.7c0,3.8,2.4,6.7,6.2,6.7
			C359.2,52,361.6,49.1,361.6,45.3z"/>
		<path fill="#FFFFFF" d="M373.3,54.6V38.8h-5.7v-2.9h14.6v2.9h-5.7v15.8H373.3z"/>
		<path fill="#FFFFFF" d="M386.4,54.6V35.9h3.3v18.7H386.4z"/>
		<path fill="#FFFFFF" d="M395,54.6V35.9h12.8v2.9h-9.5v4.8h9.3v2.9h-9.3v8.1H395z"/>
		<path fill="#FFFFFF" d="M417.5,54.6v-7.8l-7.3-10.9h3.8l5.1,8l5.1-8h3.8l-7.2,10.9v7.8H417.5z"/>
	</g>
</g>
</svg>
